<?xml version="1.0" encoding="utf-8"?>
<!-- Generator: Adobe Illustrator 27.2.0, SVG Export Plug-In . SVG Version: 6.00 Build 0)  -->
<svg version="1.1" id="Layer_1" xmlns="http://www.w3.org/2000/svg" xmlns:xlink="http://www.w3.org/1999/xlink" x="0px" y="0px"
	 viewBox="0 0 1200.3 322.4" style="enable-background:new 0 0 1200.3 322.4;" xml:space="preserve">
<style type="text/css">
	.st0{fill:#FFFFFF;}
	.st1{fill:#FDD162;}
	.st2{enable-background:new    ;}
	.st3{fill:none;stroke:#FDD162;stroke-width:10;stroke-miterlimit:10;}
	.st4{fill:none;stroke:#FDD162;stroke-width:10;stroke-miterlimit:10;stroke-dasharray:0,0,30.7,30.7;}
	.st5{fill:#FA987C;}
	.st6{clip-path:url(#SVGID_00000133496988466932555530000016180341642621552538_);}
</style>
<g>
	<path class="st0" d="M33.8,64.3c6.8,0,12.2-5.5,12.2-12.2s-5.5-12.3-12.2-12.3s-12.2,5.5-12.2,12.3S27.1,64.3,33.8,64.3z"/>
	<path class="st1" d="M67.7,52.1c0-18.7-15.2-33.8-33.8-33.8S0,33.4,0,52.1c0,5.4,1.3,10.6,3.6,15.1H3.4l30.4,51.1l30.4-51.1H64
		C66.3,62.6,67.6,57.5,67.7,52.1L67.7,52.1z M33.8,39.8c6.8,0,12.2,5.5,12.2,12.3s-5.5,12.2-12.2,12.2s-12.2-5.5-12.2-12.2
		S27.1,39.8,33.8,39.8z"/>
	<path class="st1" d="M33.8,122.6c-4.7,0-8.5,3.8-8.5,8.4c0,4.7,3.8,8.4,8.5,8.4s8.5-3.8,8.5-8.4S38.5,122.6,33.8,122.6z"/>
</g>
<g class="st2">
	<path class="st1" d="M643,235.2c4.8,0,8.6-1.4,11.4-4.1c2.8-2.7,5-6.6,6.5-11.6h4.4l-2.1,15.7h18.6l-0.3,4.1l-18.7,0.3
		c-0.3,3.1-0.7,6.3-1.1,9.7c-0.4,3.3-0.8,6.6-1.1,9.9s-0.6,6.4-0.8,9.4s-0.3,5.8-0.3,8.2c0,1.1,0,2.2,0.1,3.3
		c0.1,1.1,0.3,2.2,0.7,3.1s0.9,1.7,1.6,2.3c0.7,0.6,1.7,0.9,3,0.9c0.6,0,1.3-0.1,2.1-0.2s1.7-0.5,2.7-1s2-1.3,3.1-2.4
		s2.1-2.5,3.3-4.2l3,1.9c-1.1,1.9-2.3,3.6-3.5,5s-2.5,2.6-3.8,3.6c-1.4,1-2.8,1.7-4.4,2.2c-1.6,0.5-3.3,0.7-5.1,0.7
		c-2.3,0-4.2-0.4-5.8-1.1s-2.8-1.7-3.7-2.9c-0.9-1.2-1.6-2.6-2-4.2s-0.6-3.3-0.6-5c0-2.1,0.1-4.6,0.2-7.4c0.1-2.8,0.3-6,0.6-9.3
		c0.2-3.4,0.6-7,0.9-10.7c0.4-3.8,0.8-7.7,1.3-11.7l-10.4,0.1L643,235.2z"/>
</g>
<g class="st2">
	<path class="st1" d="M725.3,241.1c-0.2-0.1-0.4-0.1-0.7-0.1c-0.2,0-0.4,0-0.6,0c-1.8,0-3.5,0.7-5.1,2.1c-1.7,1.4-3.2,3.3-4.7,5.7
		s-2.9,5.1-4.1,8.2c-1.3,3.1-2.3,6.3-3.2,9.6c-0.9,3.3-1.6,6.7-2.1,10c-0.5,3.4-0.8,6.5-0.8,9.3c0,0.5,0,1,0,1.4s0,0.8,0,1.1
		c0,0.3,0,0.7,0.1,1c0,0.3,0.1,0.8,0.1,1.2h-9.7c-0.1-0.8-0.1-1.3-0.1-1.6c0-1,0-2.1,0-3.2c0-1.2,0.1-2.7,0.2-4.4
		c0.1-1.8,0.3-4,0.5-6.6s0.6-5.9,1.1-9.8c0.3-2.9,0.6-5.3,0.9-7.3c0.2-2,0.4-3.7,0.6-5c0.2-1.3,0.3-2.4,0.4-3.2s0.2-1.5,0.3-2.1
		s0.1-1.1,0.1-1.5s0-0.9,0-1.5c0-0.7,0-1.3-0.1-1.8c-0.1-0.6-0.2-1.1-0.5-1.6c-0.2-0.5-0.6-0.8-1-1.1s-1-0.4-1.7-0.4
		c-0.6,0-1.3,0.2-2.1,0.6c-0.7,0.4-1.5,1-2.3,1.8s-1.5,2-2.3,3.3s-1.4,3-1.9,5l-3.3-0.7c0.3-1.3,0.8-2.9,1.5-4.6
		c0.7-1.8,1.7-3.5,3-5.2s2.8-3,4.5-4.2s3.8-1.7,6.1-1.7c1.6,0,2.9,0.3,4.1,0.8c1.1,0.5,2,1.2,2.7,2.2c0.7,0.9,1.1,2.1,1.4,3.4
		c0.3,1.3,0.4,2.8,0.4,4.5c0,1.9-0.2,4-0.5,6.3s-0.7,4.7-1.3,7.2h0.3c1.7-4.8,3.5-8.8,5.2-11.9c1.8-3.1,3.6-5.6,5.4-7.4
		c1.8-1.8,3.7-3.1,5.6-3.8c1.9-0.7,3.8-1.1,5.7-1.1c1.2,0,2.3,0.2,3.3,0.5s1.9,0.7,2.6,1.3c0.7,0.6,1.3,1.2,1.7,2s0.6,1.7,0.6,2.7
		c0,0.7-0.1,1.3-0.4,2c-0.2,0.7-0.6,1.2-1.1,1.7s-1,0.9-1.7,1.2s-1.4,0.5-2.3,0.5c-1.4,0-2.7-0.4-3.7-1.2
		C726.1,243.8,725.5,242.6,725.3,241.1z"/>
</g>
<g class="st2">
	<path class="st1" d="M788,235.8c-0.6,4.6-1.3,9.1-1.9,13.7c-0.6,4.6-1.2,8.9-1.7,12.9s-0.9,7.6-1.2,10.7s-0.5,5.6-0.5,7.2
		c0,0.7,0,1.4,0.1,2.2c0,0.7,0.2,1.4,0.4,2s0.6,1.1,1,1.4c0.4,0.4,1.1,0.5,1.9,0.5c0.6,0,1.3-0.2,2.1-0.6c0.7-0.4,1.5-1,2.3-1.8
		s1.5-2,2.2-3.3s1.4-3,1.9-5l3.3,0.7c-0.3,1.3-0.8,2.9-1.5,4.6c-0.7,1.8-1.7,3.5-3,5.2c-1.3,1.6-2.8,3-4.6,4.2
		c-1.8,1.1-3.8,1.7-6.2,1.7c-1.6,0-2.9-0.2-4-0.7s-2-1.2-2.7-2s-1.2-1.9-1.5-3.2c-0.3-1.2-0.5-2.6-0.5-4.1c0-2.1,0.2-4.4,0.6-6.9
		s0.9-5.2,1.5-8h-0.3c-1.2,3.7-2.5,6.8-3.8,9.5c-1.3,2.6-2.6,4.9-4,6.7c-1.3,1.8-2.7,3.3-4,4.5c-1.4,1.1-2.7,2-3.9,2.7
		s-2.5,1.1-3.7,1.3c-1.2,0.2-2.3,0.3-3.4,0.3c-2.1,0-4-0.4-5.8-1.1s-3.4-1.8-4.7-3.4c-1.3-1.5-2.4-3.5-3.1-6c-0.8-2.5-1.1-5.5-1.1-9
		c0-5.2,0.7-10.2,2.1-14.8c1.4-4.7,3.6-8.8,6.4-12.3c2.8-3.5,6.4-6.4,10.6-8.4c4.3-2.1,9.2-3.1,14.9-3.1c2.4,0,5,0.2,7.7,0.5
		C782.8,234.7,785.5,235.2,788,235.8z M777.8,239.3c-1.2-0.5-2.5-0.8-4-1s-3.2-0.3-5-0.3c-3.5,0-6.6,0.9-9.2,2.8
		c-2.6,1.9-4.8,4.4-6.4,7.5c-1.7,3.1-3,6.6-3.8,10.5c-0.8,3.9-1.3,7.9-1.3,12c0,2.4,0.1,4.5,0.4,6.5c0.2,2,0.7,3.7,1.3,5.2
		c0.6,1.4,1.4,2.6,2.3,3.4c1,0.8,2.1,1.2,3.6,1.2c1.8,0,3.6-0.7,5.4-2.2c1.8-1.4,3.5-3.4,5.1-5.8s3.1-5.3,4.6-8.5
		c1.4-3.2,2.7-6.6,3.7-10.2s1.9-7.2,2.5-10.8S777.8,242.6,777.8,239.3z"/>
	<path class="st1" d="M840.4,233.9c2.4,0,4.5,0.5,6.3,1.5s3.3,2.4,4.4,4.2s2,3.8,2.6,6.2s0.9,4.9,0.9,7.5c0,2.5-0.2,5-0.7,7.6
		s-1.2,5.1-2.2,7.5c-1.2,3-2.7,5.9-4.7,8.7c-1.9,2.8-4.1,5.3-6.6,7.6c-2.5,2.2-5.1,4-8,5.3s-5.8,2-8.9,2c-2.6,0-4.8-0.5-6.4-1.4
		c-1.7-0.9-3-2.1-4-3.6s-1.6-3.2-2-5.2s-0.6-4-0.6-6c0-3,0.1-6,0.4-9.1c0.2-3.1,0.5-6,0.8-8.8s0.6-5.3,0.8-7.7
		c0.2-2.3,0.4-4.2,0.4-5.7c0-0.7,0-1.3-0.1-2c-0.1-0.6-0.2-1.2-0.5-1.6c-0.2-0.5-0.6-0.8-1-1.1s-1-0.4-1.7-0.4c-0.6,0-1.3,0.2-2,0.6
		c-0.7,0.4-1.4,1-2.1,1.9c-0.7,0.9-1.4,2-2,3.4s-1.3,3.1-1.8,5l-3.3-0.7c0.2-1.3,0.7-2.9,1.3-4.7c0.7-1.8,1.6-3.5,2.8-5.2
		c1.2-1.6,2.7-3.1,4.4-4.2c1.8-1.2,3.9-1.7,6.2-1.7c3.2,0,5.6,1,7.1,3s2.3,4.9,2.3,8.6c0,1.6-0.1,3.4-0.2,5.4c-0.1,2-0.3,4-0.4,6.1
		c-0.2,2.1-0.4,4.2-0.5,6.4c-0.2,2.1-0.4,4.2-0.5,6.1c-0.2,1.9-0.3,3.7-0.4,5.3c-0.1,1.6-0.2,3-0.2,4.1c0,0.9,0.1,1.7,0.2,2.6
		c0.1,0.8,0.4,1.6,0.8,2.2c0.4,0.7,1,1.2,1.7,1.6s1.7,0.6,2.9,0.6c1.9,0,3.9-0.6,6-1.7s4.2-2.6,6.1-4.4c2-1.8,3.7-4,5.3-6.4
		s2.9-5,3.8-7.7c0.4-1.3,0.8-3,1.2-5s0.5-4.2,0.5-6.4c0-1.4-0.1-2.8-0.3-4.2s-0.5-2.6-0.9-3.8s-1-2.2-1.8-3.1
		c-0.7-0.9-1.6-1.5-2.7-2c-0.5,1-1.1,1.7-1.9,2.1c-0.8,0.4-1.7,0.7-2.7,0.7c-0.5,0-1.1-0.1-1.7-0.3c-0.6-0.2-1.1-0.5-1.6-0.8
		c-0.5-0.4-0.9-0.9-1.2-1.4c-0.3-0.6-0.5-1.3-0.5-2.1c0-0.5,0.1-1.1,0.3-1.8s0.6-1.3,1.1-1.8c0.5-0.6,1.2-1,2.1-1.4
		C838.1,234.1,839.2,233.9,840.4,233.9z"/>
	<path class="st1" d="M908.8,246.7c0,2.1-0.5,3.9-1.5,5.6c-1,1.6-2.4,3.1-4.2,4.4c-1.7,1.3-3.8,2.4-6.1,3.4s-4.7,1.8-7.3,2.6
		c-2.5,0.7-5.1,1.3-7.8,1.8c-2.6,0.5-5.2,0.8-7.6,1.1c0,7,1.1,12.2,3.3,15.7c2.1,3.5,5.5,5.2,10.1,5.2c1.7,0,3.4-0.3,5.1-0.8
		c1.7-0.5,3.4-1.3,5-2.4c1.7-1.1,3.2-2.5,4.8-4.1c1.5-1.7,2.9-3.7,4.2-6l3.8,2.1c-3.3,5.8-6.9,10.1-11,12.8c-4.1,2.7-8.7,4.1-14,4.1
		c-3.7,0-6.9-0.6-9.6-1.7c-2.7-1.2-4.9-2.8-6.7-4.9s-3.1-4.6-4-7.6s-1.3-6.2-1.3-9.9c0-2.9,0.3-5.7,0.8-8.5s1.3-5.5,2.3-8
		s2.3-4.9,3.9-7c1.6-2.2,3.4-4,5.5-5.6s4.5-2.8,7.1-3.7s5.6-1.3,8.8-1.3c2.1,0,4.1,0.2,6,0.7c2,0.5,3.7,1.2,5.2,2.2s2.7,2.3,3.7,3.9
		C908.3,242.3,908.8,244.4,908.8,246.7z M890.8,237.7c-2.7,0-5,0.7-7,2c-2,1.4-3.6,3.2-4.9,5.4c-1.3,2.2-2.3,4.8-3.1,7.6
		c-0.7,2.9-1.2,5.8-1.4,8.7c3.1-0.4,6.1-1,9-1.8s5.6-1.9,7.9-3.2c2.3-1.3,4.2-2.8,5.6-4.5c1.4-1.7,2.1-3.6,2.1-5.8
		c0-1.2-0.2-2.3-0.5-3.3s-0.9-1.9-1.5-2.7c-0.7-0.8-1.6-1.4-2.6-1.8C893.4,237.9,892.2,237.7,890.8,237.7z"/>
	<path class="st1" d="M928.7,219.8c0.2-1,0.3-1.8,0.4-2.4s0.2-1.1,0.3-1.5s0.1-0.8,0.2-1.1c0.1-0.3,0.1-0.6,0.2-1l-8.3,0.4l0.5-4.4
		c2.5,0,4.7-0.1,6.4-0.2c1.7-0.2,3.1-0.4,4.2-0.7c1.1-0.3,2-0.6,2.6-1s1.2-0.8,1.7-1.2h3.4c-0.2,1.4-0.5,2.9-0.8,4.6
		c-0.3,1.7-0.6,3.4-0.9,5.1s-0.6,3.4-0.8,5c-0.3,1.6-0.5,3-0.6,4.3c-0.3,2.6-0.7,5.5-1.1,8.8c-0.4,3.2-0.8,6.6-1.2,10.1
		s-0.8,7-1.1,10.5s-0.7,6.9-0.9,10.1c-0.3,3.2-0.5,6.1-0.7,8.8c-0.2,2.7-0.3,4.9-0.3,6.7c0,0.7,0,1.4,0.1,2.1s0.2,1.3,0.4,1.9
		c0.2,0.5,0.5,1,1,1.3s1,0.5,1.8,0.5c0.6,0,1.3-0.2,2.1-0.6s1.5-1,2.3-1.8c0.7-0.8,1.5-2,2.2-3.3c0.7-1.4,1.4-3.1,1.9-5.1l3.4,0.7
		c-0.3,1.3-0.8,2.9-1.5,4.6c-0.7,1.8-1.7,3.5-3,5.1c-1.2,1.6-2.7,3-4.5,4.2c-1.8,1.1-3.8,1.7-6.2,1.7c-3.4,0-5.8-0.8-7.2-2.5
		c-1.4-1.6-2.1-4.1-2.1-7.5c0-1.7,0.1-4,0.3-6.9s0.4-6.1,0.8-9.6s0.7-7.4,1.1-11.4c0.4-4,0.9-8,1.4-12.1c0.5-4,1-8,1.4-11.8
		C927.8,226.5,928.3,223,928.7,219.8z"/>
</g>
<g>
	<path class="st3" d="M55.1,126.4c4.3-2.1,8.9-4.1,13.6-6.2"/>
	<path class="st4" d="M97.2,108.7c43.3-15.9,98.7-29.2,161.9-26.7c112.7,4.4,129.3,54.1,234.5,59.1c145.2,6.9,177.5-84.9,296.6-57.3
		c60.6,14,88.1,46.1,166.6,47.6c29.1,0.6,54.8-3.2,75.9-8.2"/>
	<path class="st3" d="M1047.4,119.2c5.2-1.5,9.9-3,14.3-4.5"/>
</g>
<g class="st2">
	<path class="st5" d="M319.9,32.7l-0.1,29.4l-72.9-0.3l-0.1,32.4l69.3,0.2l-0.1,29.4l-69.3-0.2l-0.2,58.7l-35.1-0.1l0.5-149.8
		L319.9,32.7z"/>
</g>
<g class="st2">
	<path class="st5" d="M351.1,61.5l0.1-28.7l81.9,0.3l-0.3,97.7c-0.1,17.9-4.9,31.2-14.7,40c-9.7,8.8-22.1,13.2-37.3,13.2
		c-18.9-0.1-35.4-7.1-49.4-21l18.3-23.9c9.4,9.7,19.3,14.6,29.6,14.7c4.9,0,9.2-1.8,12.7-5.4c3.5-3.6,5.3-9.1,5.3-16.4l0.2-70.3
		L351.1,61.5z"/>
</g>
<g class="st2">
	<path class="st5" d="M579.7,183.4L565.2,151l-65.9-0.2L484.5,183l-37.3-0.1l68.5-149.5l34,0.1l67.4,150L579.7,183.4z M532.6,78
		l-19.9,43.4l39.4,0.1L532.6,78z"/>
	<path class="st5" d="M635.8,33.8l35.1,0.1l-0.2,61.5l59.6-61.3l43.4,0.2l-62.8,66c5.4,7.2,15.3,20.5,29.8,40.1
		c14.5,19.5,25.3,34.1,32.5,43.7l-40.9-0.1l-45.9-59.3l-15.8,16.7l-0.1,42.4l-35.1-0.1L635.8,33.8z"/>
	<path class="st5" d="M907,184.5l-14.5-32.4l-65.9-0.2l-14.7,32.3l-37.3-0.1L843,34.5l34,0.1l67.4,150L907,184.5z M859.9,79.1
		L840,122.6l39.4,0.1L859.9,79.1z"/>
</g>
<g>
	<g>
		<g>
			<defs>
				<path id="SVGID_1_" d="M50.9,71.6v76.9h1014.4V71.6H50.9z M246.7,87.7h-0.1c-0.6,0-1.3,0-1.9,0c-0.3,0-0.6,0-0.9,0
					c-8.8,0-17.7,0.3-26.5,0.9l-1.1-0.9l-0.7-10l0.9-1.1c9.1-0.6,18.3-0.9,27.3-0.9h0.9c0.7,0,1.4,0,2.1,0V87.7L246.7,87.7z
					 M837.1,105l-1.3,0.5c-6.2-2.6-14.1-5.9-23-8.9l5-11c8.7,3.1,16.5,6.3,22.6,8.9l0.5,1.3L837.1,105L837.1,105z"/>
			</defs>
			<clipPath id="SVGID_00000013169013912602117900000009996341651498222746_">
				<use xlink:href="#SVGID_1_"  style="overflow:visible;"/>
			</clipPath>
			<g style="clip-path:url(#SVGID_00000013169013912602117900000009996341651498222746_);">
				<g>
					<path class="st3" d="M55.1,126.4c4.3-2.1,8.9-4.1,13.6-6.2"/>
					<path class="st4" d="M97.2,108.7c43.3-15.9,98.7-29.2,161.9-26.7c112.7,4.4,129.3,54.1,234.5,59.1
						c145.2,6.9,177.5-84.9,296.6-57.3c60.6,14,88.1,46.1,166.6,47.6c29.1,0.6,54.8-3.2,75.9-8.2"/>
					<path class="st3" d="M1047.4,119.2c5.2-1.5,9.9-3,14.3-4.5"/>
				</g>
			</g>
		</g>
	</g>
</g>
<path class="st1" d="M1146.3,160.2l11.3-78.6l30.2-14.7l0,0c3-1.6,6.6-5,9.1-8.5c3.2-4.5,4.2-8.6,2.8-11.5c-3.1-6.4-16.9-5.7-23.1-3
	l0,0l-30.2,14.7L1077.6,19c-0.5-0.3-1-0.3-1.5,0l-5.1,2.5c-0.5,0.2-0.8,0.7-0.9,1.2c-0.1,0.3,0,0.6,0.1,0.9c0.1,0.1,0.2,0.3,0.3,0.4
	l49.2,47.6l-39.6,19.3l-24.7-11.6c-0.5-0.3-1.1-0.3-1.6-0.1l-4.6,2.2c-0.5,0.2-0.8,0.7-0.9,1.2c-0.1,0.3,0,0.7,0.2,0.9
	c0.1,0.2,0.2,0.3,0.4,0.5l26.6,24.3l2.8,35.9c0,0.2,0.1,0.4,0.2,0.6c0.1,0.3,0.4,0.5,0.7,0.7c0.5,0.3,1,0.3,1.5,0.1l4.6-2.2
	c0.5-0.2,0.8-0.7,0.9-1.3l6.6-28.8l38.3-18.6l7.2,68.1c0,0.2,0.1,0.4,0.1,0.5c0.1,0.3,0.3,0.5,0.6,0.6c0.5,0.2,1,0.3,1.5,0l5.1-2.5
	C1145.9,161.2,1146.2,160.7,1146.3,160.2L1146.3,160.2z"/>
</svg>
